<svg xmlns="http://www.w3.org/2000/svg" viewBox="0 0 404.84 512"><defs><style>.cls-1{fill:#dde7ee;}</style></defs><g id="Calque_2" data-name="Calque 2"><g id="Capa_1" data-name="Capa 1"><path class="cls-1" d="M256.64,93.67a22.24,22.24,0,0,1,12.53,3.83,7.51,7.51,0,0,0,8.4-12.44,37.44,37.44,0,1,0-20.93,68.48,31.64,31.64,0,0,0,21.42-7.84,33.08,33.08,0,0,0,3.19-3.29,7.5,7.5,0,0,0-11.5-9.64,16,16,0,0,1-1.67,1.72,16.63,16.63,0,0,1-11.44,4,22.44,22.44,0,1,1,0-44.87Z"/><path class="cls-1" d="M331.32,153.54h.06a8.87,8.87,0,0,0,8.34-6l19.55-58.85A7.5,7.5,0,0,0,345,83.91l-13.84,41.65L316.67,83.71a7.5,7.5,0,1,0-14.18,4.92l20.49,59a8.85,8.85,0,0,0,8.34,5.89Z"/><path class="cls-1" d="M357.34,243.93H216.63a7.51,7.51,0,0,0,0,15H357.34a7.51,7.51,0,0,0,0-15Z"/><path class="cls-1" d="M216.63,305H287a7.51,7.51,0,0,0,0-15H216.63a7.51,7.51,0,0,0,0,15Z"/><path class="cls-1" d="M357.34,336H216.63a7.51,7.51,0,0,0,0,15H357.34a7.51,7.51,0,0,0,0-15Z"/><path class="cls-1" d="M364.84,389.5a7.5,7.5,0,0,0-7.5-7.51H216.63a7.51,7.51,0,0,0,0,15H357.34A7.5,7.5,0,0,0,364.84,389.5Z"/><path class="cls-1" d="M216.63,429.24a7.51,7.51,0,0,0,0,15H287a7.51,7.51,0,0,0,0-15Z"/><path class="cls-1" d="M357.34,197.91H216.63a7.51,7.51,0,0,0,0,15H357.34a7.51,7.51,0,0,0,0-15Z"/><path class="cls-1" d="M397.33,105.27a7.5,7.5,0,0,0,7.51-7.5V28.71A28.74,28.74,0,0,0,376.13,0H28.71A28.74,28.74,0,0,0,0,28.71V483.29A28.74,28.74,0,0,0,28.71,512H376.12a28.75,28.75,0,0,0,28.72-28.71V132.84a7.51,7.51,0,0,0-15,0V483.29A13.72,13.72,0,0,1,376.13,497H184.91V15H376.12a13.73,13.73,0,0,1,13.71,13.71V97.77A7.5,7.5,0,0,0,397.33,105.27ZM169.91,497H28.71A13.72,13.72,0,0,1,15,483.29V28.71A13.73,13.73,0,0,1,28.71,15h141.2Z"/><path class="cls-1" d="M92.55,175.59A59.49,59.49,0,1,0,33.07,116.1,59.58,59.58,0,0,0,92.55,175.59Zm0-15a44.23,44.23,0,0,1-26-8.45A29.36,29.36,0,0,1,81.57,138a25.83,25.83,0,0,0,22,0,29.36,29.36,0,0,1,15.06,14.09A44.21,44.21,0,0,1,92.55,160.58Zm-10.89-46a10.89,10.89,0,1,1,10.89,10.89A10.91,10.91,0,0,1,81.66,114.59Zm10.89-43a44.46,44.46,0,0,1,36.91,69.27,43.81,43.81,0,0,0-14.25-13.77,25.9,25.9,0,1,0-45.31,0,43.75,43.75,0,0,0-14.26,13.77A44.46,44.46,0,0,1,92.55,71.62Z"/><path class="cls-1" d="M49.08,285.22H136A16.22,16.22,0,0,0,152.23,269V247.58A16.22,16.22,0,0,0,136,231.38H49.08a16.22,16.22,0,0,0-16.2,16.2V269A16.22,16.22,0,0,0,49.08,285.22Zm-1.2-37.64a1.2,1.2,0,0,1,1.2-1.2H136a1.2,1.2,0,0,1,1.2,1.2V269a1.2,1.2,0,0,1-1.2,1.2H49.08a1.2,1.2,0,0,1-1.2-1.2Z"/><path class="cls-1" d="M49.08,364.73h7.57a7.5,7.5,0,1,0,0-15H49.08a1.2,1.2,0,0,1-1.2-1.2V327.1a1.2,1.2,0,0,1,1.2-1.2H136a1.2,1.2,0,0,1,1.2,1.2v21.43a1.2,1.2,0,0,1-1.2,1.2H91.72a7.5,7.5,0,0,0,0,15H136a16.22,16.22,0,0,0,16.21-16.2V327.1A16.23,16.23,0,0,0,136,310.89H49.08a16.22,16.22,0,0,0-16.2,16.21v21.43A16.22,16.22,0,0,0,49.08,364.73Z"/><path class="cls-1" d="M49.08,444.25H136A16.23,16.23,0,0,0,152.23,428V406.61A16.22,16.22,0,0,0,136,390.41H49.08a16.22,16.22,0,0,0-16.2,16.2V428A16.22,16.22,0,0,0,49.08,444.25Zm-1.2-37.64a1.2,1.2,0,0,1,1.2-1.2H136a1.2,1.2,0,0,1,1.2,1.2V428a1.2,1.2,0,0,1-1.2,1.2H49.08a1.2,1.2,0,0,1-1.2-1.2Z"/></g></g></svg>